<svg version="1.1" id="Layer_1" xmlns="http://www.w3.org/2000/svg" xmlns:xlink="http://www.w3.org/1999/xlink" x="0px" y="0px"
	 width="100%" viewBox="0 0 412 231" enable-background="new 0 0 412 231" xml:space="preserve">
<path fill="#FCFCFC" opacity="1.000000" stroke="none" 
	d="
M303.000000,232.000000 
	C202.000031,232.000000 101.500069,232.000000 1.000081,232.000000 
	C1.000054,155.000061 1.000054,78.000130 1.000027,1.000143 
	C138.333221,1.000095 275.666443,1.000095 412.999756,1.000048 
	C412.999817,77.999855 412.999817,154.999710 412.999908,231.999786 
	C376.500000,232.000000 340.000000,232.000000 303.000000,232.000000 
M219.692078,146.821014 
	C230.122238,166.536362 240.552414,186.251694 251.490921,206.927902 
	C265.123352,181.034943 278.104706,156.378571 291.086060,131.722198 
	C291.477173,131.800461 291.868256,131.878738 292.259338,131.957016 
	C292.259338,160.046127 292.259338,188.135254 292.259338,216.863342 
	C295.234924,214.166321 296.460541,141.017548 294.457031,127.531128 
	C290.880127,125.752739 289.531860,128.079437 288.120422,130.793518 
	C276.829437,152.505127 265.474243,174.183350 254.128098,195.866241 
	C253.429062,197.202118 252.639526,198.490646 251.650986,200.223969 
	C250.859085,198.926178 250.484253,198.380386 250.177216,197.798798 
	C238.441589,175.569672 226.698944,153.344208 214.998825,131.096359 
	C213.555084,128.351120 212.310730,125.546036 208.753479,127.442528 
	C208.753479,157.140900 208.753479,186.537033 208.753479,215.933167 
	C209.312576,215.938934 209.871658,215.944702 210.430756,215.950470 
	C210.430756,187.968323 210.430756,159.986191 210.430756,132.004044 
	C210.908554,131.921448 211.386337,131.838837 211.864136,131.756226 
	C214.345001,136.567642 216.825851,141.379044 219.692078,146.821014 
M159.017044,74.907417 
	C161.225281,56.839653 176.272934,45.565220 191.713318,46.091732 
	C204.160400,46.516171 213.419464,52.752136 219.410858,63.632023 
	C220.730835,66.028984 221.750015,67.717728 224.469620,65.253517 
	C224.363602,64.770142 224.330704,64.263992 224.144501,63.822487 
	C216.791748,46.387119 196.189453,37.561958 178.362579,44.199226 
	C160.233078,50.949162 150.481552,71.154663 156.564926,89.364700 
	C161.350998,103.691383 174.589798,113.719872 189.479355,114.297615 
	C204.450668,114.878532 218.535828,106.094246 223.985321,92.596664 
	C224.489685,91.347412 223.998886,89.696381 223.970169,88.231903 
	C222.737381,89.126801 221.247559,89.812439 220.318069,90.954239 
	C216.994781,95.036491 214.520981,100.098335 210.527588,103.290756 
	C200.264435,111.495407 188.465042,112.552322 176.792694,106.724998 
	C164.319473,100.497849 158.533020,89.782501 159.017044,74.907417 
M247.602966,72.120857 
	C259.602051,61.983509 263.960724,49.073303 259.711792,34.105000 
	C255.578201,19.543072 245.293091,10.469276 230.310867,8.312867 
	C214.911880,6.096469 202.631058,12.240514 194.236923,25.436558 
	C193.157944,27.132769 193.409637,29.675436 193.044891,31.825981 
	C194.556412,30.464458 196.489471,29.362034 197.511322,27.699535 
	C204.351196,16.571379 218.006775,9.944352 229.811295,12.262115 
	C244.637100,15.173092 255.174057,26.094545 256.934631,40.375221 
	C258.527679,53.296993 251.382187,66.487236 239.493164,72.571365 
	C224.120148,80.438400 205.851990,74.700104 196.921555,59.174198 
	C195.705460,57.059944 194.911880,54.210251 191.621353,56.777584 
	C197.624130,76.650543 226.009125,88.913528 247.602966,72.120857 
M327.763977,201.249634 
	C328.830811,198.813675 330.101532,196.443802 330.917358,193.926498 
	C332.189423,190.001404 334.582153,188.841644 338.712128,188.919281 
	C353.357483,189.194565 368.012238,189.123322 382.660767,188.953445 
	C385.993011,188.914810 387.725037,189.935394 389.013885,193.077255 
	C391.787720,199.839050 394.969147,206.437225 398.114838,213.039917 
	C398.759979,214.394012 399.978912,215.474716 400.933380,216.681427 
	C401.421997,216.363510 401.910614,216.045578 402.399261,215.727661 
	C400.600250,211.736069 398.833160,207.729721 396.997009,203.755295 
	C385.631744,179.154877 374.269501,154.553009 362.818848,129.992371 
	C362.268890,128.812714 360.894104,128.017578 359.903442,127.043396 
	C358.869843,128.152985 357.505829,129.098770 356.860352,130.400772 
	C354.202667,135.761627 351.733643,141.217194 349.248627,146.662308 
	C339.172302,168.741165 329.108917,190.825958 319.073608,212.923462 
	C318.610168,213.943985 318.463745,215.108475 318.169678,216.205902 
	C318.817047,216.486298 319.464386,216.766678 320.111755,217.047073 
	C322.542328,212.003006 324.972870,206.958954 327.763977,201.249634 
M16.025711,151.500000 
	C16.025711,143.357925 16.025711,135.215851 16.025711,127.073776 
	C15.348855,127.028061 14.672000,126.982353 13.995144,126.936646 
	C13.721975,128.467224 13.217677,129.996887 13.211499,131.528534 
	C13.151714,146.350021 13.175531,161.171844 13.175529,175.993561 
	C13.175527,188.150711 13.141521,200.308075 13.224321,212.464661 
	C13.233363,213.792038 13.915314,215.114853 14.285151,216.439774 
	C14.865376,216.307343 15.445600,216.174911 16.025824,216.042480 
	C16.025824,209.269714 15.975429,202.496277 16.062889,195.724640 
	C16.083565,194.123840 16.014807,192.038406 16.927288,191.010162 
	C23.392408,183.724686 30.102308,176.656433 36.901558,169.338791 
	C38.244339,170.883682 39.134659,171.849350 39.960686,172.867218 
	C50.975895,186.440750 61.951241,200.046890 73.038162,213.561523 
	C74.149185,214.915817 75.923531,215.725952 77.390015,216.788635 
	C77.692024,216.389587 77.994034,215.990555 78.296036,215.591507 
	C65.258896,199.486679 52.221752,183.381851 38.976318,167.019730 
	C51.254478,153.735229 63.244625,140.762360 75.234772,127.789482 
	C74.827301,127.332993 74.419830,126.876503 74.012367,126.420021 
	C72.493279,127.621689 70.784660,128.647736 69.483841,130.051651 
	C52.848030,148.005920 36.274673,166.018051 19.667414,183.998810 
	C18.746607,184.995773 17.667612,185.846619 16.025728,187.347229 
	C16.025728,175.080322 16.025728,163.790161 16.025711,151.500000 
M104.707275,142.504730 
	C104.229507,137.389069 105.744598,132.039520 103.091339,127.109558 
	C102.263474,128.320236 101.940460,129.519928 101.939491,130.719864 
	C101.925598,147.877167 101.741356,165.038086 102.028275,182.190948 
	C102.388710,203.738770 114.274361,215.670837 135.820328,216.671936 
	C156.371201,217.626831 170.470261,206.675919 171.943085,186.406021 
	C173.315842,167.513397 172.622238,148.469284 172.743027,129.491257 
	C172.748596,128.613510 171.821548,127.729813 171.328873,126.848892 
	C170.878616,126.998154 170.428360,127.147408 169.978104,127.296669 
	C169.978104,129.090302 169.978348,130.883942 169.978073,132.677582 
	C169.975739,148.335922 170.120834,163.996017 169.934372,179.652176 
	C169.688293,200.314453 159.882370,212.637115 139.624283,213.744797 
	C119.628822,214.838120 105.775780,204.506866 104.979660,183.973801 
	C104.457260,170.500198 104.768723,156.994247 104.707275,142.504730 
z"/>
<path fill="#98A5C4" opacity="1.000000" stroke="none" 
	d="
M219.499390,146.505737 
	C216.825851,141.379044 214.345001,136.567642 211.864136,131.756226 
	C211.386337,131.838837 210.908554,131.921448 210.430756,132.004044 
	C210.430756,159.986191 210.430756,187.968323 210.430756,215.950470 
	C209.871658,215.944702 209.312576,215.938934 208.753479,215.933167 
	C208.753479,186.537033 208.753479,157.140900 208.753479,127.442528 
	C212.310730,125.546036 213.555084,128.351120 214.998825,131.096359 
	C226.698944,153.344208 238.441589,175.569672 250.177216,197.798798 
	C250.484253,198.380386 250.859085,198.926178 251.650986,200.223969 
	C252.639526,198.490646 253.429062,197.202118 254.128098,195.866241 
	C265.474243,174.183350 276.829437,152.505127 288.120422,130.793518 
	C289.531860,128.079437 290.880127,125.752739 294.457031,127.531128 
	C296.460541,141.017548 295.234924,214.166321 292.259338,216.863342 
	C292.259338,188.135254 292.259338,160.046127 292.259338,131.957016 
	C291.868256,131.878738 291.477173,131.800461 291.086060,131.722198 
	C278.104706,156.378571 265.123352,181.034943 251.490921,206.927902 
	C240.552414,186.251694 230.122238,166.536362 219.499390,146.505737 
z"/>
<path fill="#688391" opacity="1.000000" stroke="none" 
	d="
M158.998077,75.350418 
	C158.533020,89.782501 164.319473,100.497849 176.792694,106.724998 
	C188.465042,112.552322 200.264435,111.495407 210.527588,103.290756 
	C214.520981,100.098335 216.994781,95.036491 220.318069,90.954239 
	C221.247559,89.812439 222.737381,89.126801 223.970169,88.231903 
	C223.998886,89.696381 224.489685,91.347412 223.985321,92.596664 
	C218.535828,106.094246 204.450668,114.878532 189.479355,114.297615 
	C174.589798,113.719872 161.350998,103.691383 156.564926,89.364700 
	C150.481552,71.154663 160.233078,50.949162 178.362579,44.199226 
	C196.189453,37.561958 216.791748,46.387119 224.144501,63.822487 
	C224.330704,64.263992 224.363602,64.770142 224.469620,65.253517 
	C221.750015,67.717728 220.730835,66.028984 219.410858,63.632023 
	C213.419464,52.752136 204.160400,46.516171 191.713318,46.091732 
	C176.272934,45.565220 161.225281,56.839653 158.998077,75.350418 
z"/>
<path fill="#688491" opacity="1.000000" stroke="none" 
	d="
M247.332611,72.354584 
	C226.009125,88.913528 197.624130,76.650543 191.621353,56.777584 
	C194.911880,54.210251 195.705460,57.059944 196.921555,59.174198 
	C205.851990,74.700104 224.120148,80.438400 239.493164,72.571365 
	C251.382187,66.487236 258.527679,53.296993 256.934631,40.375221 
	C255.174057,26.094545 244.637100,15.173092 229.811295,12.262115 
	C218.006775,9.944352 204.351196,16.571379 197.511322,27.699535 
	C196.489471,29.362034 194.556412,30.464458 193.044891,31.825985 
	C193.409637,29.675436 193.157944,27.132769 194.236923,25.436558 
	C202.631058,12.240514 214.911880,6.096469 230.310867,8.312867 
	C245.293091,10.469276 255.578201,19.543072 259.711792,34.105000 
	C263.960724,49.073303 259.602051,61.983509 247.332611,72.354584 
z"/>
<path fill="#ABB1DA" opacity="1.000000" stroke="none" 
	d="
M327.583710,201.582260 
	C324.972870,206.958954 322.542328,212.003006 320.111755,217.047073 
	C319.464386,216.766678 318.817047,216.486298 318.169678,216.205902 
	C318.463745,215.108475 318.610168,213.943985 319.073608,212.923462 
	C329.108917,190.825958 339.172302,168.741165 349.248627,146.662308 
	C351.733643,141.217194 354.202667,135.761627 356.860352,130.400772 
	C357.505829,129.098770 358.869843,128.152985 359.903442,127.043396 
	C360.894104,128.017578 362.268890,128.812714 362.818848,129.992371 
	C374.269501,154.553009 385.631744,179.154877 396.997009,203.755295 
	C398.833160,207.729721 400.600250,211.736069 402.399261,215.727661 
	C401.910614,216.045578 401.421997,216.363510 400.933380,216.681427 
	C399.978912,215.474716 398.759979,214.394012 398.114838,213.039917 
	C394.969147,206.437225 391.787720,199.839050 389.013885,193.077255 
	C387.725037,189.935394 385.993011,188.914810 382.660767,188.953445 
	C368.012238,189.123322 353.357483,189.194565 338.712128,188.919281 
	C334.582153,188.841644 332.189423,190.001404 330.917358,193.926498 
	C330.101532,196.443802 328.830811,198.813675 327.583710,201.582260 
M340.794678,172.338806 
	C338.866913,176.685928 336.939148,181.033066 334.862122,185.716812 
	C351.896698,185.716812 368.241058,185.716812 385.334900,185.716812 
	C376.789124,167.163696 368.533508,149.240585 359.881348,130.456528 
	C353.242493,145.006744 347.165894,158.324707 340.794678,172.338806 
z"/>
<path fill="#728B98" opacity="1.000000" stroke="none" 
	d="
M16.025719,152.000000 
	C16.025728,163.790161 16.025728,175.080322 16.025728,187.347229 
	C17.667612,185.846619 18.746607,184.995773 19.667414,183.998810 
	C36.274673,166.018051 52.848030,148.005920 69.483841,130.051651 
	C70.784660,128.647736 72.493279,127.621689 74.012367,126.420021 
	C74.419830,126.876503 74.827301,127.332993 75.234772,127.789482 
	C63.244625,140.762360 51.254478,153.735229 38.976318,167.019730 
	C52.221752,183.381851 65.258896,199.486679 78.296036,215.591507 
	C77.994034,215.990555 77.692024,216.389587 77.390015,216.788635 
	C75.923531,215.725952 74.149185,214.915817 73.038162,213.561523 
	C61.951241,200.046890 50.975895,186.440750 39.960686,172.867218 
	C39.134659,171.849350 38.244339,170.883682 36.901558,169.338791 
	C30.102308,176.656433 23.392408,183.724686 16.927288,191.010162 
	C16.014807,192.038406 16.083565,194.123840 16.062889,195.724640 
	C15.975429,202.496277 16.025824,209.269714 16.025824,216.042480 
	C15.445600,216.174911 14.865376,216.307343 14.285151,216.439774 
	C13.915314,215.114853 13.233363,213.792038 13.224321,212.464661 
	C13.141521,200.308075 13.175527,188.150711 13.175529,175.993561 
	C13.175531,161.171844 13.151714,146.350021 13.211499,131.528534 
	C13.217677,129.996887 13.721975,128.467224 13.995144,126.936646 
	C14.672000,126.982353 15.348855,127.028061 16.025711,127.073776 
	C16.025711,135.215851 16.025711,143.357925 16.025719,152.000000 
z"/>
<path fill="#8196AB" opacity="1.000000" stroke="none" 
	d="
M104.707008,143.003754 
	C104.768723,156.994247 104.457260,170.500198 104.979660,183.973801 
	C105.775780,204.506866 119.628822,214.838120 139.624283,213.744797 
	C159.882370,212.637115 169.688293,200.314453 169.934372,179.652176 
	C170.120834,163.996017 169.975739,148.335922 169.978073,132.677582 
	C169.978348,130.883942 169.978104,129.090302 169.978104,127.296669 
	C170.428360,127.147408 170.878616,126.998154 171.328873,126.848892 
	C171.821548,127.729813 172.748596,128.613510 172.743027,129.491257 
	C172.622238,148.469284 173.315842,167.513397 171.943085,186.406021 
	C170.470261,206.675919 156.371201,217.626831 135.820328,216.671936 
	C114.274361,215.670837 102.388710,203.738770 102.028275,182.190948 
	C101.741356,165.038086 101.925598,147.877167 101.939491,130.719864 
	C101.940460,129.519928 102.263474,128.320236 103.091339,127.109558 
	C105.744598,132.039520 104.229507,137.389069 104.707008,143.003754 
z"/>
<path fill="#FBFBFC" opacity="1.000000" stroke="none" 
	d="
M340.942017,171.990738 
	C347.165894,158.324707 353.242493,145.006744 359.881348,130.456528 
	C368.533508,149.240585 376.789124,167.163696 385.334900,185.716812 
	C368.241058,185.716812 351.896698,185.716812 334.862122,185.716812 
	C336.939148,181.033066 338.866913,176.685928 340.942017,171.990738 
z"/>
</svg>