<?xml version="1.0" standalone="no"?>
<!DOCTYPE svg PUBLIC "-//W3C//DTD SVG 20010904//EN"
 "http://www.w3.org/TR/2001/REC-SVG-20010904/DTD/svg10.dtd">
<svg version="1.0" xmlns="http://www.w3.org/2000/svg"
 width="300.000000pt" height="169.000000pt" viewBox="0 0 300.000000 169.000000"
 preserveAspectRatio="xMidYMid meet">
<metadata>
Created by potrace 1.10, written by Peter Selinger 2001-2011
</metadata>
<g transform="translate(0.000000,169.000000) scale(0.100000,-0.100000)"
fill="#000000" stroke="none">
<path d="M515 1008 c-3 -7 -4 -132 -3 -277 2 -201 6 -265 16 -269 16 -5 18
543 2 553 -6 3 -12 0 -15 -7z"/>
<path d="M705 886 c-66 -74 -121 -139 -123 -145 -6 -17 241 -282 252 -271 8 8
-66 100 -183 222 l-44 47 93 103 c52 57 105 115 119 131 16 18 22 30 15 37 -7
7 -50 -35 -129 -124z"/>
<path d="M2530 848 c-41 -95 -93 -218 -116 -273 -38 -89 -47 -132 -23 -108 10
10 209 480 209 494 0 34 25 -16 100 -193 124 -299 130 -312 140 -302 6 6 -14
65 -51 154 -34 80 -85 201 -114 270 -29 68 -57 126 -63 128 -5 1 -42 -75 -82
-170z"/>
<path d="M1050 815 c0 -192 1 -199 25 -244 74 -135 257 -142 346 -13 23 34 24
43 27 244 2 131 0 208 -7 208 -6 0 -11 -78 -13 -198 -3 -197 -3 -199 -31 -240
-54 -83 -156 -106 -238 -53 -76 48 -84 74 -86 296 -1 122 -6 191 -12 193 -8 3
-11 -60 -11 -193z"/>
<path d="M1700 736 c0 -174 4 -276 10 -276 6 0 11 91 12 239 l3 239 105 -237
c58 -130 109 -235 114 -234 8 2 171 355 198 429 6 19 15 34 18 34 4 0 6 -102
6 -227 -1 -144 3 -229 9 -231 6 -1 11 94 13 268 1 169 -1 270 -7 270 -11 0
-45 -70 -162 -332 -41 -92 -77 -164 -80 -160 -3 4 -33 70 -67 147 -116 265
-152 340 -162 343 -7 3 -10 -90 -10 -272z"/>
<path d="M2510 625 c0 -13 15 -15 100 -13 134 4 135 22 3 26 -88 2 -103 0
-103 -13z"/>
</g>
</svg>
